<svg xmlns="http://www.w3.org/2000/svg" viewBox="0 0 800 1000"><defs><linearGradient id="b" x1="0" y1="0" x2="1" y2="1"><stop stop-color="#f4dfd5"/><stop offset="1" stop-color="#cb7f65"/></linearGradient><linearGradient id="s" x1="0" y1="0" x2="0" y2="1"><stop stop-color="#efc3a5"/><stop offset="1" stop-color="#c88766"/></linearGradient></defs><rect width="800" height="1000" fill="url(#b)"/><circle cx="400" cy="360" r="190" fill="url(#s)"/><path d="M205 350c10-195 365-245 390 0-100-90-290-80-390 0Z" fill="#6a4534"/><path d="M245 345c10 165 70 255 155 255s145-90 155-255c-50 35-95 45-155 45s-110-10-155-45Z" fill="url(#s)"/><ellipse cx="330" cy="410" rx="17" ry="11" fill="#302620"/><ellipse cx="470" cy="410" rx="17" ry="11" fill="#302620"/><path d="M350 510q50 33 100 0" fill="none" stroke="#7b493a" stroke-width="10" stroke-linecap="round"/><path d="M95 1000c35-275 170-370 305-370s270 95 305 370" fill="#171717"/><path d="M315 625l85 100 85-100" fill="#f7f1ea"/><text x="50" y="84" font-family="Arial" font-size="26" fill="#7b3022" letter-spacing="5">MISTRAL AI</text></svg>
