<svg xmlns="http://www.w3.org/2000/svg" viewBox="0 0 800 1000"><defs><linearGradient id="b" x1="0" y1="0" x2="1" y2="1"><stop stop-color="#efe8de"/><stop offset="1" stop-color="#afa392"/></linearGradient><linearGradient id="s" x1="0" y1="0" x2="0" y2="1"><stop stop-color="#edc3a2"/><stop offset="1" stop-color="#c98d6d"/></linearGradient></defs><rect width="800" height="1000" fill="url(#b)"/><circle cx="400" cy="365" r="194" fill="url(#s)"/><path d="M205 340c5-210 370-255 390 15-65-110-300-120-390-15Z" fill="#d5d1c9"/><path d="M240 345c15 170 75 260 160 260 90 0 150-90 160-260-45 35-95 55-160 55s-115-20-160-55Z" fill="url(#s)"/><g fill="none" stroke="#3a302c" stroke-width="12"><rect x="275" y="390" width="105" height="65" rx="26"/><rect x="420" y="390" width="105" height="65" rx="26"/><path d="M380 420h40"/></g><circle cx="330" cy="422" r="8" fill="#2d2825"/><circle cx="470" cy="422" r="8" fill="#2d2825"/><path d="M345 515q55 35 110 0" fill="none" stroke="#7f4d3f" stroke-width="10" stroke-linecap="round"/><path d="M100 1000c35-270 165-365 300-365s265 95 300 365" fill="#252b36"/><path d="M315 630l85 95 85-95" fill="#f5f3ee"/><text x="50" y="84" font-family="Arial" font-size="24" fill="#514b42" letter-spacing="5">OPEN RESEARCH</text></svg>
