<svg xmlns="http://www.w3.org/2000/svg" viewBox="0 0 24 24"><title>Ideogram</title><path fill="currentColor" fill-rule="evenodd" d="M17.768 1.482a6.4 6.4 0 0 1 2.988 3.78 3.377 3.377 0 0 1 1.15 5.669 3.376 3.376 0 0 1-.216 5.158 3.377 3.377 0 0 1-4.149 5.013 3.377 3.377 0 0 1-5.846.971 4.052 4.052 0 0 1-1.76.405h-.897c-1.184-.071-1.161-1.778 0-1.778h.804a2.3 2.3 0 0 0 .094-4.6H2.808a.889.889 0 0 1 0-1.778h7.034a2.3 2.3 0 0 0 .094-4.6H2.808a.889.889 0 1 1 0-1.777h7.035a2.3 2.3 0 0 0 .093-4.6h-.897c-1.184-.072-1.161-1.779 0-1.779h.8c.436-.005.858.053 1.253.16a6.399 6.399 0 0 1 6.676-.224zm-3.737 11.484a4.08 4.08 0 0 1-1.555 2.24 4.07 4.07 0 0 1 .617 5.768 1.599 1.599 0 0 0 2.824-1.322.889.889 0 0 1 1.65-.727 1.6 1.6 0 1 0 2.4-2.07 3.376 3.376 0 0 1-3.483-2.66 1.6 1.6 0 0 0-2.453-1.229zm-4.416 4.595a.889.889 0 1 1 0 1.777H5.939a.889.889 0 0 1 0-1.777h3.676zm9.208-10.503a1.6 1.6 0 0 0-.799 1.385.889.889 0 0 1-1.778 0 1.6 1.6 0 0 0-2.528-1.301 4.089 4.089 0 0 1-1.255 1.674 4.083 4.083 0 0 1 1.451 2.308 3.374 3.374 0 0 1 4.125 2.532 1.6 1.6 0 0 0 1.519 1.363 1.6 1.6 0 0 0 .102-3.197.889.889 0 0 1-.079-1.776 1.6 1.6 0 0 0-.768-2.988zM9.624 11.14a.889.889 0 0 1 0 1.777H.89a.889.889 0 0 1 0-1.777h8.735zm-.01-6.433a.889.889 0 1 1 0 1.777H5.94a.889.889 0 1 1 0-1.777h3.676zm3.297-1.954a4.065 4.065 0 0 1 1.073 2.381 3.375 3.375 0 0 1 3.151 1.027 3.366 3.366 0 0 1 1.695-1 4.621 4.621 0 0 0-5.919-2.408z"/></svg>
